<mxfile host="app.diagrams.net" modified="2021-05-13T14:28:24.917Z" agent="5.0 (Windows NT 10.0; Win64; x64) AppleWebKit/537.36 (KHTML, like Gecko) Chrome/90.0.4430.212 Safari/537.36" etag="MWpCWwBUOCt9HxOAwFlb" version="14.6.12" type="github">
  <diagram id="R2lEEEUBdFMjLlhIrx00" name="Page-1">
    <mxGraphModel dx="868" dy="482" grid="1" gridSize="10" guides="1" tooltips="1" connect="1" arrows="1" fold="1" page="1" pageScale="1" pageWidth="850" pageHeight="1100" math="0" shadow="0" extFonts="Permanent Marker^https://fonts.googleapis.com/css?family=Permanent+Marker">
      <root>
        <mxCell id="0" />
        <mxCell id="1" parent="0" />
        <mxCell id="D4Nxwyg57vVo66-qPh9i-23" value="OGRENCÄ°" style="shape=table;startSize=30;container=1;collapsible=1;childLayout=tableLayout;fixedRows=1;rowLines=0;fontStyle=1;align=center;resizeLast=1;" vertex="1" parent="1">
          <mxGeometry x="40" y="70" width="180" height="240" as="geometry" />
        </mxCell>
        <mxCell id="D4Nxwyg57vVo66-qPh9i-24" value="" style="shape=partialRectangle;collapsible=0;dropTarget=0;pointerEvents=0;fillColor=none;top=0;left=0;bottom=1;right=0;points=[[0,0.5],[1,0.5]];portConstraint=eastwest;" vertex="1" parent="D4Nxwyg57vVo66-qPh9i-23">
          <mxGeometry y="30" width="180" height="30" as="geometry" />
        </mxCell>
        <mxCell id="D4Nxwyg57vVo66-qPh9i-25" value="PK" style="shape=partialRectangle;connectable=0;fillColor=none;top=0;left=0;bottom=0;right=0;fontStyle=1;overflow=hidden;" vertex="1" parent="D4Nxwyg57vVo66-qPh9i-24">
          <mxGeometry width="30" height="30" as="geometry" />
        </mxCell>
        <mxCell id="D4Nxwyg57vVo66-qPh9i-26" value="OgrenciID (int)" style="shape=partialRectangle;connectable=0;fillColor=none;top=0;left=0;bottom=0;right=0;align=left;spacingLeft=6;fontStyle=5;overflow=hidden;" vertex="1" parent="D4Nxwyg57vVo66-qPh9i-24">
          <mxGeometry x="30" width="150" height="30" as="geometry" />
        </mxCell>
        <mxCell id="D4Nxwyg57vVo66-qPh9i-27" value="" style="shape=partialRectangle;collapsible=0;dropTarget=0;pointerEvents=0;fillColor=none;top=0;left=0;bottom=0;right=0;points=[[0,0.5],[1,0.5]];portConstraint=eastwest;" vertex="1" parent="D4Nxwyg57vVo66-qPh9i-23">
          <mxGeometry y="60" width="180" height="30" as="geometry" />
        </mxCell>
        <mxCell id="D4Nxwyg57vVo66-qPh9i-28" value="" style="shape=partialRectangle;connectable=0;fillColor=none;top=0;left=0;bottom=0;right=0;editable=1;overflow=hidden;" vertex="1" parent="D4Nxwyg57vVo66-qPh9i-27">
          <mxGeometry width="30" height="30" as="geometry" />
        </mxCell>
        <mxCell id="D4Nxwyg57vVo66-qPh9i-29" value="Adi (varchar)" style="shape=partialRectangle;connectable=0;fillColor=none;top=0;left=0;bottom=0;right=0;align=left;spacingLeft=6;overflow=hidden;" vertex="1" parent="D4Nxwyg57vVo66-qPh9i-27">
          <mxGeometry x="30" width="150" height="30" as="geometry" />
        </mxCell>
        <mxCell id="D4Nxwyg57vVo66-qPh9i-30" value="" style="shape=partialRectangle;collapsible=0;dropTarget=0;pointerEvents=0;fillColor=none;top=0;left=0;bottom=0;right=0;points=[[0,0.5],[1,0.5]];portConstraint=eastwest;" vertex="1" parent="D4Nxwyg57vVo66-qPh9i-23">
          <mxGeometry y="90" width="180" height="30" as="geometry" />
        </mxCell>
        <mxCell id="D4Nxwyg57vVo66-qPh9i-31" value="" style="shape=partialRectangle;connectable=0;fillColor=none;top=0;left=0;bottom=0;right=0;editable=1;overflow=hidden;" vertex="1" parent="D4Nxwyg57vVo66-qPh9i-30">
          <mxGeometry width="30" height="30" as="geometry" />
        </mxCell>
        <mxCell id="D4Nxwyg57vVo66-qPh9i-32" value="Soyadi (varchar)" style="shape=partialRectangle;connectable=0;fillColor=none;top=0;left=0;bottom=0;right=0;align=left;spacingLeft=6;overflow=hidden;" vertex="1" parent="D4Nxwyg57vVo66-qPh9i-30">
          <mxGeometry x="30" width="150" height="30" as="geometry" />
        </mxCell>
        <mxCell id="D4Nxwyg57vVo66-qPh9i-33" value="" style="shape=partialRectangle;collapsible=0;dropTarget=0;pointerEvents=0;fillColor=none;top=0;left=0;bottom=0;right=0;points=[[0,0.5],[1,0.5]];portConstraint=eastwest;" vertex="1" parent="D4Nxwyg57vVo66-qPh9i-23">
          <mxGeometry y="120" width="180" height="30" as="geometry" />
        </mxCell>
        <mxCell id="D4Nxwyg57vVo66-qPh9i-34" value="FK" style="shape=partialRectangle;connectable=0;fillColor=none;top=0;left=0;bottom=0;right=0;editable=1;overflow=hidden;fontStyle=1" vertex="1" parent="D4Nxwyg57vVo66-qPh9i-33">
          <mxGeometry width="30" height="30" as="geometry" />
        </mxCell>
        <mxCell id="D4Nxwyg57vVo66-qPh9i-35" value="BolumID (smallint)" style="shape=partialRectangle;connectable=0;fillColor=none;top=0;left=0;bottom=0;right=0;align=left;spacingLeft=6;overflow=hidden;" vertex="1" parent="D4Nxwyg57vVo66-qPh9i-33">
          <mxGeometry x="30" width="150" height="30" as="geometry" />
        </mxCell>
        <mxCell id="D4Nxwyg57vVo66-qPh9i-91" value="" style="shape=partialRectangle;collapsible=0;dropTarget=0;pointerEvents=0;fillColor=none;top=0;left=0;bottom=0;right=0;points=[[0,0.5],[1,0.5]];portConstraint=eastwest;" vertex="1" parent="D4Nxwyg57vVo66-qPh9i-23">
          <mxGeometry y="150" width="180" height="30" as="geometry" />
        </mxCell>
        <mxCell id="D4Nxwyg57vVo66-qPh9i-92" value="" style="shape=partialRectangle;connectable=0;fillColor=none;top=0;left=0;bottom=0;right=0;editable=1;overflow=hidden;" vertex="1" parent="D4Nxwyg57vVo66-qPh9i-91">
          <mxGeometry width="30" height="30" as="geometry" />
        </mxCell>
        <mxCell id="D4Nxwyg57vVo66-qPh9i-93" value="Dogum Tarihi(date)" style="shape=partialRectangle;connectable=0;fillColor=none;top=0;left=0;bottom=0;right=0;align=left;spacingLeft=6;overflow=hidden;" vertex="1" parent="D4Nxwyg57vVo66-qPh9i-91">
          <mxGeometry x="30" width="150" height="30" as="geometry" />
        </mxCell>
        <mxCell id="D4Nxwyg57vVo66-qPh9i-94" value="" style="shape=partialRectangle;collapsible=0;dropTarget=0;pointerEvents=0;fillColor=none;top=0;left=0;bottom=0;right=0;points=[[0,0.5],[1,0.5]];portConstraint=eastwest;" vertex="1" parent="D4Nxwyg57vVo66-qPh9i-23">
          <mxGeometry y="180" width="180" height="30" as="geometry" />
        </mxCell>
        <mxCell id="D4Nxwyg57vVo66-qPh9i-95" value="" style="shape=partialRectangle;connectable=0;fillColor=none;top=0;left=0;bottom=0;right=0;editable=1;overflow=hidden;" vertex="1" parent="D4Nxwyg57vVo66-qPh9i-94">
          <mxGeometry width="30" height="30" as="geometry" />
        </mxCell>
        <mxCell id="D4Nxwyg57vVo66-qPh9i-96" value="Cinsiyet (Char)" style="shape=partialRectangle;connectable=0;fillColor=none;top=0;left=0;bottom=0;right=0;align=left;spacingLeft=6;overflow=hidden;" vertex="1" parent="D4Nxwyg57vVo66-qPh9i-94">
          <mxGeometry x="30" width="150" height="30" as="geometry" />
        </mxCell>
        <mxCell id="D4Nxwyg57vVo66-qPh9i-39" value="NOTLAR" style="shape=table;startSize=30;container=1;collapsible=1;childLayout=tableLayout;fixedRows=1;rowLines=0;fontStyle=1;align=center;resizeLast=1;" vertex="1" parent="1">
          <mxGeometry x="280" y="110" width="180" height="190" as="geometry" />
        </mxCell>
        <mxCell id="D4Nxwyg57vVo66-qPh9i-40" value="" style="shape=partialRectangle;collapsible=0;dropTarget=0;pointerEvents=0;fillColor=none;top=0;left=0;bottom=0;right=0;points=[[0,0.5],[1,0.5]];portConstraint=eastwest;" vertex="1" parent="D4Nxwyg57vVo66-qPh9i-39">
          <mxGeometry y="30" width="180" height="30" as="geometry" />
        </mxCell>
        <mxCell id="D4Nxwyg57vVo66-qPh9i-41" value="PK,FK1" style="shape=partialRectangle;connectable=0;fillColor=none;top=0;left=0;bottom=0;right=0;fontStyle=1;overflow=hidden;" vertex="1" parent="D4Nxwyg57vVo66-qPh9i-40">
          <mxGeometry width="60" height="30" as="geometry" />
        </mxCell>
        <mxCell id="D4Nxwyg57vVo66-qPh9i-42" value="OgrenciID (int)" style="shape=partialRectangle;connectable=0;fillColor=none;top=0;left=0;bottom=0;right=0;align=left;spacingLeft=6;fontStyle=5;overflow=hidden;" vertex="1" parent="D4Nxwyg57vVo66-qPh9i-40">
          <mxGeometry x="60" width="120" height="30" as="geometry" />
        </mxCell>
        <mxCell id="D4Nxwyg57vVo66-qPh9i-43" value="" style="shape=partialRectangle;collapsible=0;dropTarget=0;pointerEvents=0;fillColor=none;top=0;left=0;bottom=1;right=0;points=[[0,0.5],[1,0.5]];portConstraint=eastwest;" vertex="1" parent="D4Nxwyg57vVo66-qPh9i-39">
          <mxGeometry y="60" width="180" height="30" as="geometry" />
        </mxCell>
        <mxCell id="D4Nxwyg57vVo66-qPh9i-44" value="PK,FK2" style="shape=partialRectangle;connectable=0;fillColor=none;top=0;left=0;bottom=0;right=0;fontStyle=1;overflow=hidden;" vertex="1" parent="D4Nxwyg57vVo66-qPh9i-43">
          <mxGeometry width="60" height="30" as="geometry" />
        </mxCell>
        <mxCell id="D4Nxwyg57vVo66-qPh9i-45" value="DersID (int)" style="shape=partialRectangle;connectable=0;fillColor=none;top=0;left=0;bottom=0;right=0;align=left;spacingLeft=6;fontStyle=5;overflow=hidden;" vertex="1" parent="D4Nxwyg57vVo66-qPh9i-43">
          <mxGeometry x="60" width="120" height="30" as="geometry" />
        </mxCell>
        <mxCell id="D4Nxwyg57vVo66-qPh9i-46" value="" style="shape=partialRectangle;collapsible=0;dropTarget=0;pointerEvents=0;fillColor=none;top=0;left=0;bottom=0;right=0;points=[[0,0.5],[1,0.5]];portConstraint=eastwest;" vertex="1" parent="D4Nxwyg57vVo66-qPh9i-39">
          <mxGeometry y="90" width="180" height="30" as="geometry" />
        </mxCell>
        <mxCell id="D4Nxwyg57vVo66-qPh9i-47" value="" style="shape=partialRectangle;connectable=0;fillColor=none;top=0;left=0;bottom=0;right=0;editable=1;overflow=hidden;" vertex="1" parent="D4Nxwyg57vVo66-qPh9i-46">
          <mxGeometry width="60" height="30" as="geometry" />
        </mxCell>
        <mxCell id="D4Nxwyg57vVo66-qPh9i-48" value="Vize (tinyint)" style="shape=partialRectangle;connectable=0;fillColor=none;top=0;left=0;bottom=0;right=0;align=left;spacingLeft=6;overflow=hidden;" vertex="1" parent="D4Nxwyg57vVo66-qPh9i-46">
          <mxGeometry x="60" width="120" height="30" as="geometry" />
        </mxCell>
        <mxCell id="D4Nxwyg57vVo66-qPh9i-49" value="" style="shape=partialRectangle;collapsible=0;dropTarget=0;pointerEvents=0;fillColor=none;top=0;left=0;bottom=0;right=0;points=[[0,0.5],[1,0.5]];portConstraint=eastwest;" vertex="1" parent="D4Nxwyg57vVo66-qPh9i-39">
          <mxGeometry y="120" width="180" height="30" as="geometry" />
        </mxCell>
        <mxCell id="D4Nxwyg57vVo66-qPh9i-50" value="" style="shape=partialRectangle;connectable=0;fillColor=none;top=0;left=0;bottom=0;right=0;editable=1;overflow=hidden;" vertex="1" parent="D4Nxwyg57vVo66-qPh9i-49">
          <mxGeometry width="60" height="30" as="geometry" />
        </mxCell>
        <mxCell id="D4Nxwyg57vVo66-qPh9i-51" value="Final (tinyint)" style="shape=partialRectangle;connectable=0;fillColor=none;top=0;left=0;bottom=0;right=0;align=left;spacingLeft=6;overflow=hidden;" vertex="1" parent="D4Nxwyg57vVo66-qPh9i-49">
          <mxGeometry x="60" width="120" height="30" as="geometry" />
        </mxCell>
        <mxCell id="D4Nxwyg57vVo66-qPh9i-97" value="" style="shape=partialRectangle;collapsible=0;dropTarget=0;pointerEvents=0;fillColor=none;top=0;left=0;bottom=0;right=0;points=[[0,0.5],[1,0.5]];portConstraint=eastwest;" vertex="1" parent="D4Nxwyg57vVo66-qPh9i-39">
          <mxGeometry y="150" width="180" height="30" as="geometry" />
        </mxCell>
        <mxCell id="D4Nxwyg57vVo66-qPh9i-98" value="" style="shape=partialRectangle;connectable=0;fillColor=none;top=0;left=0;bottom=0;right=0;editable=1;overflow=hidden;" vertex="1" parent="D4Nxwyg57vVo66-qPh9i-97">
          <mxGeometry width="60" height="30" as="geometry" />
        </mxCell>
        <mxCell id="D4Nxwyg57vVo66-qPh9i-99" value="Butunleme (tinyint)" style="shape=partialRectangle;connectable=0;fillColor=none;top=0;left=0;bottom=0;right=0;align=left;spacingLeft=6;overflow=hidden;" vertex="1" parent="D4Nxwyg57vVo66-qPh9i-97">
          <mxGeometry x="60" width="120" height="30" as="geometry" />
        </mxCell>
        <mxCell id="D4Nxwyg57vVo66-qPh9i-65" value="DERSLER" style="shape=table;startSize=30;container=1;collapsible=1;childLayout=tableLayout;fixedRows=1;rowLines=0;fontStyle=1;align=center;resizeLast=1;" vertex="1" parent="1">
          <mxGeometry x="550" y="140" width="180" height="210" as="geometry" />
        </mxCell>
        <mxCell id="D4Nxwyg57vVo66-qPh9i-66" value="" style="shape=partialRectangle;collapsible=0;dropTarget=0;pointerEvents=0;fillColor=none;top=0;left=0;bottom=1;right=0;points=[[0,0.5],[1,0.5]];portConstraint=eastwest;" vertex="1" parent="D4Nxwyg57vVo66-qPh9i-65">
          <mxGeometry y="30" width="180" height="30" as="geometry" />
        </mxCell>
        <mxCell id="D4Nxwyg57vVo66-qPh9i-67" value="PK" style="shape=partialRectangle;connectable=0;fillColor=none;top=0;left=0;bottom=0;right=0;fontStyle=1;overflow=hidden;" vertex="1" parent="D4Nxwyg57vVo66-qPh9i-66">
          <mxGeometry width="30" height="30" as="geometry" />
        </mxCell>
        <mxCell id="D4Nxwyg57vVo66-qPh9i-68" value="DersID (int)" style="shape=partialRectangle;connectable=0;fillColor=none;top=0;left=0;bottom=0;right=0;align=left;spacingLeft=6;fontStyle=5;overflow=hidden;" vertex="1" parent="D4Nxwyg57vVo66-qPh9i-66">
          <mxGeometry x="30" width="150" height="30" as="geometry" />
        </mxCell>
        <mxCell id="D4Nxwyg57vVo66-qPh9i-69" value="" style="shape=partialRectangle;collapsible=0;dropTarget=0;pointerEvents=0;fillColor=none;top=0;left=0;bottom=0;right=0;points=[[0,0.5],[1,0.5]];portConstraint=eastwest;" vertex="1" parent="D4Nxwyg57vVo66-qPh9i-65">
          <mxGeometry y="60" width="180" height="30" as="geometry" />
        </mxCell>
        <mxCell id="D4Nxwyg57vVo66-qPh9i-70" value="" style="shape=partialRectangle;connectable=0;fillColor=none;top=0;left=0;bottom=0;right=0;editable=1;overflow=hidden;" vertex="1" parent="D4Nxwyg57vVo66-qPh9i-69">
          <mxGeometry width="30" height="30" as="geometry" />
        </mxCell>
        <mxCell id="D4Nxwyg57vVo66-qPh9i-71" value="DersAdi (varchar)" style="shape=partialRectangle;connectable=0;fillColor=none;top=0;left=0;bottom=0;right=0;align=left;spacingLeft=6;overflow=hidden;" vertex="1" parent="D4Nxwyg57vVo66-qPh9i-69">
          <mxGeometry x="30" width="150" height="30" as="geometry" />
        </mxCell>
        <mxCell id="D4Nxwyg57vVo66-qPh9i-72" value="" style="shape=partialRectangle;collapsible=0;dropTarget=0;pointerEvents=0;fillColor=none;top=0;left=0;bottom=0;right=0;points=[[0,0.5],[1,0.5]];portConstraint=eastwest;" vertex="1" parent="D4Nxwyg57vVo66-qPh9i-65">
          <mxGeometry y="90" width="180" height="20" as="geometry" />
        </mxCell>
        <mxCell id="D4Nxwyg57vVo66-qPh9i-73" value="" style="shape=partialRectangle;connectable=0;fillColor=none;top=0;left=0;bottom=0;right=0;editable=1;overflow=hidden;" vertex="1" parent="D4Nxwyg57vVo66-qPh9i-72">
          <mxGeometry width="30" height="20" as="geometry" />
        </mxCell>
        <mxCell id="D4Nxwyg57vVo66-qPh9i-74" value="Teori (tinyint)" style="shape=partialRectangle;connectable=0;fillColor=none;top=0;left=0;bottom=0;right=0;align=left;spacingLeft=6;overflow=hidden;" vertex="1" parent="D4Nxwyg57vVo66-qPh9i-72">
          <mxGeometry x="30" width="150" height="20" as="geometry" />
        </mxCell>
        <mxCell id="D4Nxwyg57vVo66-qPh9i-75" value="" style="shape=partialRectangle;collapsible=0;dropTarget=0;pointerEvents=0;fillColor=none;top=0;left=0;bottom=0;right=0;points=[[0,0.5],[1,0.5]];portConstraint=eastwest;" vertex="1" parent="D4Nxwyg57vVo66-qPh9i-65">
          <mxGeometry y="110" width="180" height="30" as="geometry" />
        </mxCell>
        <mxCell id="D4Nxwyg57vVo66-qPh9i-76" value="" style="shape=partialRectangle;connectable=0;fillColor=none;top=0;left=0;bottom=0;right=0;editable=1;overflow=hidden;" vertex="1" parent="D4Nxwyg57vVo66-qPh9i-75">
          <mxGeometry width="30" height="30" as="geometry" />
        </mxCell>
        <mxCell id="D4Nxwyg57vVo66-qPh9i-77" value="Uygulama (tinyint)" style="shape=partialRectangle;connectable=0;fillColor=none;top=0;left=0;bottom=0;right=0;align=left;spacingLeft=6;overflow=hidden;" vertex="1" parent="D4Nxwyg57vVo66-qPh9i-75">
          <mxGeometry x="30" width="150" height="30" as="geometry" />
        </mxCell>
        <mxCell id="D4Nxwyg57vVo66-qPh9i-103" value="" style="shape=partialRectangle;collapsible=0;dropTarget=0;pointerEvents=0;fillColor=none;top=0;left=0;bottom=0;right=0;points=[[0,0.5],[1,0.5]];portConstraint=eastwest;" vertex="1" parent="D4Nxwyg57vVo66-qPh9i-65">
          <mxGeometry y="140" width="180" height="30" as="geometry" />
        </mxCell>
        <mxCell id="D4Nxwyg57vVo66-qPh9i-104" value="" style="shape=partialRectangle;connectable=0;fillColor=none;top=0;left=0;bottom=0;right=0;editable=1;overflow=hidden;" vertex="1" parent="D4Nxwyg57vVo66-qPh9i-103">
          <mxGeometry width="30" height="30" as="geometry" />
        </mxCell>
        <mxCell id="D4Nxwyg57vVo66-qPh9i-105" value="Kredi (tinyint)" style="shape=partialRectangle;connectable=0;fillColor=none;top=0;left=0;bottom=0;right=0;align=left;spacingLeft=6;overflow=hidden;" vertex="1" parent="D4Nxwyg57vVo66-qPh9i-103">
          <mxGeometry x="30" width="150" height="30" as="geometry" />
        </mxCell>
        <mxCell id="D4Nxwyg57vVo66-qPh9i-106" value="" style="shape=partialRectangle;collapsible=0;dropTarget=0;pointerEvents=0;fillColor=none;top=0;left=0;bottom=0;right=0;points=[[0,0.5],[1,0.5]];portConstraint=eastwest;" vertex="1" parent="D4Nxwyg57vVo66-qPh9i-65">
          <mxGeometry y="170" width="180" height="30" as="geometry" />
        </mxCell>
        <mxCell id="D4Nxwyg57vVo66-qPh9i-107" value="FK" style="shape=partialRectangle;connectable=0;fillColor=none;top=0;left=0;bottom=0;right=0;editable=1;overflow=hidden;fontStyle=1" vertex="1" parent="D4Nxwyg57vVo66-qPh9i-106">
          <mxGeometry width="30" height="30" as="geometry" />
        </mxCell>
        <mxCell id="D4Nxwyg57vVo66-qPh9i-108" value="BolumID (smallint)" style="shape=partialRectangle;connectable=0;fillColor=none;top=0;left=0;bottom=0;right=0;align=left;spacingLeft=6;overflow=hidden;" vertex="1" parent="D4Nxwyg57vVo66-qPh9i-106">
          <mxGeometry x="30" width="150" height="30" as="geometry" />
        </mxCell>
        <mxCell id="D4Nxwyg57vVo66-qPh9i-78" value="BOLUMLER" style="shape=table;startSize=30;container=1;collapsible=1;childLayout=tableLayout;fixedRows=1;rowLines=0;fontStyle=1;align=center;resizeLast=1;" vertex="1" parent="1">
          <mxGeometry x="280" y="400" width="180" height="160" as="geometry" />
        </mxCell>
        <mxCell id="D4Nxwyg57vVo66-qPh9i-79" value="" style="shape=partialRectangle;collapsible=0;dropTarget=0;pointerEvents=0;fillColor=none;top=0;left=0;bottom=1;right=0;points=[[0,0.5],[1,0.5]];portConstraint=eastwest;" vertex="1" parent="D4Nxwyg57vVo66-qPh9i-78">
          <mxGeometry y="30" width="180" height="30" as="geometry" />
        </mxCell>
        <mxCell id="D4Nxwyg57vVo66-qPh9i-80" value="PK" style="shape=partialRectangle;connectable=0;fillColor=none;top=0;left=0;bottom=0;right=0;fontStyle=1;overflow=hidden;" vertex="1" parent="D4Nxwyg57vVo66-qPh9i-79">
          <mxGeometry width="30" height="30" as="geometry" />
        </mxCell>
        <mxCell id="D4Nxwyg57vVo66-qPh9i-81" value="BolumID (smallint)" style="shape=partialRectangle;connectable=0;fillColor=none;top=0;left=0;bottom=0;right=0;align=left;spacingLeft=6;fontStyle=5;overflow=hidden;" vertex="1" parent="D4Nxwyg57vVo66-qPh9i-79">
          <mxGeometry x="30" width="150" height="30" as="geometry" />
        </mxCell>
        <mxCell id="D4Nxwyg57vVo66-qPh9i-82" value="" style="shape=partialRectangle;collapsible=0;dropTarget=0;pointerEvents=0;fillColor=none;top=0;left=0;bottom=0;right=0;points=[[0,0.5],[1,0.5]];portConstraint=eastwest;" vertex="1" parent="D4Nxwyg57vVo66-qPh9i-78">
          <mxGeometry y="60" width="180" height="30" as="geometry" />
        </mxCell>
        <mxCell id="D4Nxwyg57vVo66-qPh9i-83" value="" style="shape=partialRectangle;connectable=0;fillColor=none;top=0;left=0;bottom=0;right=0;editable=1;overflow=hidden;" vertex="1" parent="D4Nxwyg57vVo66-qPh9i-82">
          <mxGeometry width="30" height="30" as="geometry" />
        </mxCell>
        <mxCell id="D4Nxwyg57vVo66-qPh9i-84" value="BolumAdi (varchar)" style="shape=partialRectangle;connectable=0;fillColor=none;top=0;left=0;bottom=0;right=0;align=left;spacingLeft=6;overflow=hidden;" vertex="1" parent="D4Nxwyg57vVo66-qPh9i-82">
          <mxGeometry x="30" width="150" height="30" as="geometry" />
        </mxCell>
        <mxCell id="D4Nxwyg57vVo66-qPh9i-85" value="" style="shape=partialRectangle;collapsible=0;dropTarget=0;pointerEvents=0;fillColor=none;top=0;left=0;bottom=0;right=0;points=[[0,0.5],[1,0.5]];portConstraint=eastwest;" vertex="1" parent="D4Nxwyg57vVo66-qPh9i-78">
          <mxGeometry y="90" width="180" height="30" as="geometry" />
        </mxCell>
        <mxCell id="D4Nxwyg57vVo66-qPh9i-86" value="" style="shape=partialRectangle;connectable=0;fillColor=none;top=0;left=0;bottom=0;right=0;editable=1;overflow=hidden;" vertex="1" parent="D4Nxwyg57vVo66-qPh9i-85">
          <mxGeometry width="30" height="30" as="geometry" />
        </mxCell>
        <mxCell id="D4Nxwyg57vVo66-qPh9i-87" value="OgrenciSayisi (int)" style="shape=partialRectangle;connectable=0;fillColor=none;top=0;left=0;bottom=0;right=0;align=left;spacingLeft=6;overflow=hidden;" vertex="1" parent="D4Nxwyg57vVo66-qPh9i-85">
          <mxGeometry x="30" width="150" height="30" as="geometry" />
        </mxCell>
        <mxCell id="D4Nxwyg57vVo66-qPh9i-88" value="" style="shape=partialRectangle;collapsible=0;dropTarget=0;pointerEvents=0;fillColor=none;top=0;left=0;bottom=0;right=0;points=[[0,0.5],[1,0.5]];portConstraint=eastwest;" vertex="1" parent="D4Nxwyg57vVo66-qPh9i-78">
          <mxGeometry y="120" width="180" height="30" as="geometry" />
        </mxCell>
        <mxCell id="D4Nxwyg57vVo66-qPh9i-89" value="" style="shape=partialRectangle;connectable=0;fillColor=none;top=0;left=0;bottom=0;right=0;editable=1;overflow=hidden;" vertex="1" parent="D4Nxwyg57vVo66-qPh9i-88">
          <mxGeometry width="30" height="30" as="geometry" />
        </mxCell>
        <mxCell id="D4Nxwyg57vVo66-qPh9i-90" value="" style="shape=partialRectangle;connectable=0;fillColor=none;top=0;left=0;bottom=0;right=0;align=left;spacingLeft=6;overflow=hidden;" vertex="1" parent="D4Nxwyg57vVo66-qPh9i-88">
          <mxGeometry x="30" width="150" height="30" as="geometry" />
        </mxCell>
        <mxCell id="D4Nxwyg57vVo66-qPh9i-100" value="" style="edgeStyle=entityRelationEdgeStyle;fontSize=12;html=1;endArrow=ERoneToMany;exitX=1;exitY=0.5;exitDx=0;exitDy=0;" edge="1" parent="1" source="D4Nxwyg57vVo66-qPh9i-24" target="D4Nxwyg57vVo66-qPh9i-40">
          <mxGeometry width="100" height="100" relative="1" as="geometry">
            <mxPoint x="200" y="220" as="sourcePoint" />
            <mxPoint x="300" y="120" as="targetPoint" />
          </mxGeometry>
        </mxCell>
        <mxCell id="D4Nxwyg57vVo66-qPh9i-101" value="" style="edgeStyle=entityRelationEdgeStyle;fontSize=12;html=1;endArrow=ERoneToMany;exitX=0;exitY=0.5;exitDx=0;exitDy=0;entryX=1;entryY=0.5;entryDx=0;entryDy=0;" edge="1" parent="1" source="D4Nxwyg57vVo66-qPh9i-79" target="D4Nxwyg57vVo66-qPh9i-33">
          <mxGeometry width="100" height="100" relative="1" as="geometry">
            <mxPoint x="380" y="370" as="sourcePoint" />
            <mxPoint x="480" y="270" as="targetPoint" />
          </mxGeometry>
        </mxCell>
        <mxCell id="D4Nxwyg57vVo66-qPh9i-102" value="" style="edgeStyle=entityRelationEdgeStyle;fontSize=12;html=1;endArrow=ERoneToMany;entryX=1;entryY=0.5;entryDx=0;entryDy=0;exitX=0;exitY=0.5;exitDx=0;exitDy=0;" edge="1" parent="1" source="D4Nxwyg57vVo66-qPh9i-66" target="D4Nxwyg57vVo66-qPh9i-43">
          <mxGeometry width="100" height="100" relative="1" as="geometry">
            <mxPoint x="380" y="370" as="sourcePoint" />
            <mxPoint x="480" y="270" as="targetPoint" />
          </mxGeometry>
        </mxCell>
        <mxCell id="D4Nxwyg57vVo66-qPh9i-109" value="" style="edgeStyle=entityRelationEdgeStyle;fontSize=12;html=1;endArrow=ERoneToMany;entryX=0;entryY=0.5;entryDx=0;entryDy=0;" edge="1" parent="1" target="D4Nxwyg57vVo66-qPh9i-106">
          <mxGeometry width="100" height="100" relative="1" as="geometry">
            <mxPoint x="460" y="450" as="sourcePoint" />
            <mxPoint x="560" y="350" as="targetPoint" />
          </mxGeometry>
        </mxCell>
      </root>
    </mxGraphModel>
  </diagram>
</mxfile>
